<svg width="25" height="25" viewBox="0 0 25 25" fill="none" xmlns="http://www.w3.org/2000/svg">
<path d="M8.5 24C9.32843 24 10 23.3284 10 22.5C10 21.6716 9.32843 21 8.5 21C7.67157 21 7 21.6716 7 22.5C7 23.3284 7.67157 24 8.5 24Z" fill="#0F0F0F" stroke="#0F0F0F" stroke-width="2" stroke-linecap="round" stroke-linejoin="round"/>
<path d="M20.5 24C21.3284 24 22 23.3284 22 22.5C22 21.6716 21.3284 21 20.5 21C19.6716 21 19 21.6716 19 22.5C19 23.3284 19.6716 24 20.5 24Z" fill="#0F0F0F" stroke="#0F0F0F" stroke-width="2" stroke-linecap="round" stroke-linejoin="round"/>
<path fill-rule="evenodd" clip-rule="evenodd" d="M0 0.923057C0 0.413266 0.404562 0 0.903614 0H5.12048C5.55117 0 5.922 0.310503 6.00652 0.7419L6.91616 5.3845H24.0964C24.3657 5.3845 24.6209 5.5072 24.7926 5.71916C24.9643 5.93111 25.0344 6.21024 24.984 6.48047L23.296 15.5226C23.1582 16.2309 22.781 16.8671 22.2304 17.3199C21.6821 17.7707 20.9968 18.0111 20.2933 17.9996H10.0621C9.35864 18.0111 8.67328 17.7707 8.12506 17.3199C7.5746 16.8673 7.19747 16.2313 7.05963 15.5233L5.29769 6.53081C5.29111 6.50372 5.28569 6.47616 5.2815 6.44819L4.3798 1.84611H0.903614C0.404562 1.84611 0 1.43285 0 0.923057Z" fill="black"/>
</svg>
