<svg width="31" height="25" viewBox="0 0 31 25" fill="none" xmlns="http://www.w3.org/2000/svg">
<path d="M29.1825 0.00303046C26.2331 0.176579 20.371 0.808272 16.7521 3.10514C16.5024 3.26362 16.3609 3.54542 16.3609 3.84007V24.1452C16.3609 24.7897 17.0406 25.1971 17.6138 24.898C21.3371 22.9549 26.7218 22.4248 29.3843 22.2797C30.2933 22.23 31 21.4745 31 20.5688V1.71619C31.0005 0.727915 30.1739 -0.055005 29.1825 0.00303046ZM14.2479 3.10514C10.6295 0.808272 4.76741 0.177137 1.81805 0.00303046C0.826681 -0.055005 0 0.727915 0 1.71619V20.5693C0 21.4756 0.706662 22.2312 1.61569 22.2803C4.27926 22.4254 9.66668 22.956 13.39 24.9002C13.9615 25.1988 14.6391 24.792 14.6391 24.1491V3.83002C14.6391 3.53482 14.4981 3.26418 14.2479 3.10514Z" fill="#E8BE13"/>
</svg>
