<svg width="29" height="25" viewBox="0 0 29 25" fill="none" xmlns="http://www.w3.org/2000/svg">
<path d="M0.5 11.7922C0.5 12.4006 0.947358 12.9153 1.68148 12.9153C2.03707 12.9153 2.34678 12.7281 2.62208 12.4825L3.94121 11.3594V22.2508C3.94121 23.9822 4.96211 25 6.70565 25H22.2255C23.9691 25 24.99 23.9822 24.99 22.2508V11.2892L26.3894 12.4825C26.6647 12.7281 26.9744 12.9153 27.33 12.9153C27.9953 12.9153 28.5 12.4942 28.5 11.8273C28.5 11.4296 28.3509 11.1137 28.0526 10.868L24.99 8.23584V3.26392C24.99 2.73748 24.6573 2.39822 24.1411 2.39822H22.5926C22.0879 2.39822 21.7438 2.73748 21.7438 3.26392V5.45157L16.1231 0.631727C15.1366 -0.210576 13.8978 -0.210576 12.8998 0.631727L0.947358 10.868C0.649119 11.1254 0.5 11.4647 0.5 11.7922Z" fill="black"/>
<path d="M17.0642 14C17.6354 14 18 14.3274 18 14.8404V22H11V14.8404C11 14.3274 11.3889 14 11.9479 14H17.0642Z" fill="#F4F4F4"/>
</svg>
