<svg width="18" height="17" viewBox="0 0 18 17" fill="none" xmlns="http://www.w3.org/2000/svg">
<path d="M7.91529 12.7497C8.63179 12.7497 9.34127 12.6155 10.0032 12.3548C10.6652 12.0941 11.2667 11.7119 11.7733 11.2302C12.2799 10.7484 12.6818 10.1765 12.956 9.54701C13.2302 8.91756 13.3713 8.24292 13.3713 7.5616C13.3713 6.88029 13.2302 6.20565 12.956 5.5762C12.6818 4.94675 12.2799 4.37481 11.7733 3.89305C11.2667 3.41129 10.6652 3.02914 10.0032 2.76841C9.34127 2.50768 8.63179 2.37349 7.91529 2.37349C6.46826 2.37349 5.08049 2.92009 4.05728 3.89305C3.03408 4.86601 2.45925 6.18563 2.45925 7.5616C2.45925 8.93758 3.03408 10.2572 4.05728 11.2302C5.08049 12.2031 6.46826 12.7497 7.91529 12.7497ZM13.6623 11.8038L16.9178 14.8993C17.0046 14.9791 17.0738 15.0746 17.1213 15.1801C17.1689 15.2857 17.1939 15.3991 17.1949 15.514C17.1958 15.6288 17.1727 15.7426 17.1269 15.8488C17.0811 15.9551 17.0135 16.0516 16.9281 16.1327C16.8427 16.2138 16.7411 16.278 16.6293 16.3214C16.5175 16.3648 16.3978 16.3866 16.277 16.3855C16.1563 16.3844 16.037 16.3605 15.9261 16.3151C15.8152 16.2697 15.7149 16.2038 15.631 16.1211L12.3756 13.0256C10.9138 14.1045 9.07451 14.6133 7.23215 14.4481C5.38979 14.283 3.68286 13.4564 2.45884 12.1367C1.23481 10.817 0.585717 9.10329 0.643679 7.3445C0.701641 5.58571 1.46231 3.91403 2.77083 2.66977C4.07935 1.42551 5.83736 0.702198 7.68698 0.647082C9.53659 0.591966 11.3388 1.20919 12.7267 2.3731C14.1145 3.53702 14.9838 5.16012 15.1575 6.91201C15.3311 8.6639 14.7961 10.4129 13.6614 11.8029L13.6623 11.8038Z" fill="#181B19"/>
</svg>
